<svg width="256" height="48" viewBox="0 0 256 48" fill="none" xmlns="http://www.w3.org/2000/svg">
<path d="M34 34H14C13.59 34 13.25 33.66 13.25 33.25C13.25 32.84 13.59 32.5 14 32.5H34C34.41 32.5 34.75 32.84 34.75 33.25C34.75 33.66 34.41 34 34 34Z" fill="white"/>
<path d="M21.75 16V34H26.25V16C26.25 14.9 25.8 14 24.45 14H23.55C22.2 14 21.75 14.9 21.75 16Z" fill="white"/>
<path d="M15 22V34H19V22C19 20.9 18.6 20 17.4 20H16.6C15.4 20 15 20.9 15 22Z" fill="white"/>
<path d="M29 27V34H33V27C33 25.9 32.6 25 31.4 25H30.6C29.4 25 29 25.9 29 27Z" fill="white"/>
<path d="M51.684 29.5L48.506 21.814V29.5H47.092V19.448H48.982L52.356 27.61L55.716 19.448H57.62V29.5H56.192V21.8L53 29.5H51.684ZM64.1752 29.5V28.352C63.7132 29.178 62.8872 29.64 61.7952 29.64C60.2552 29.64 59.2472 28.758 59.2472 27.4C59.2472 25.944 60.4092 25.188 62.6212 25.188C63.0552 25.188 63.4052 25.202 64.0072 25.272V24.726C64.0072 23.662 63.4332 23.06 62.4532 23.06C61.4172 23.06 60.7872 23.676 60.7452 24.712H59.4572C59.5272 23.046 60.7172 21.94 62.4532 21.94C64.2872 21.94 65.3512 22.976 65.3512 24.74V29.5H64.1752ZM60.5912 27.358C60.5912 28.128 61.1652 28.632 62.0752 28.632C63.2652 28.632 64.0072 27.89 64.0072 26.756V26.154C63.4612 26.084 63.0692 26.07 62.7052 26.07C61.2912 26.07 60.5912 26.49 60.5912 27.358ZM73.1217 27.288C73.1217 28.744 71.9877 29.64 70.0137 29.64C68.0537 29.64 66.8917 28.674 66.7517 27.078H68.1097C68.1657 28.002 68.9077 28.576 70.0417 28.576C71.0357 28.576 71.6937 28.226 71.6937 27.526C71.6937 26.91 71.3157 26.644 70.3917 26.462L69.1877 26.238C67.8157 25.972 67.0457 25.272 67.0457 24.152C67.0457 22.85 68.1797 21.94 69.9017 21.94C71.6797 21.94 72.8837 22.892 73.0097 24.418H71.6517C71.5677 23.522 70.9097 23.004 69.9157 23.004C69.0197 23.004 68.4177 23.382 68.4177 24.026C68.4177 24.628 68.7957 24.908 69.6917 25.076L70.9517 25.314C72.4217 25.58 73.1217 26.224 73.1217 27.288ZM78.7558 28.128V29.374C78.3218 29.57 77.9438 29.64 77.4958 29.64C76.1238 29.64 75.1718 28.898 75.1718 27.26V23.284H73.5338V22.08H75.1718V19.882H76.5858V22.08H78.8258V23.284H76.5858V26.938C76.5858 27.96 77.0758 28.324 77.8318 28.324C78.1678 28.324 78.4618 28.268 78.7558 28.128ZM83.0222 29.64C80.8802 29.64 79.4382 28.086 79.4382 25.748C79.4382 23.55 80.9362 21.94 82.9802 21.94C85.1922 21.94 86.6622 23.732 86.4102 26.14H80.8802C80.9922 27.652 81.7482 28.534 82.9942 28.534C84.0442 28.534 84.7722 27.96 85.0102 26.994H86.4102C86.0462 28.646 84.7722 29.64 83.0222 29.64ZM82.9522 23.004C81.8182 23.004 81.0482 23.816 80.8942 25.202H84.9122C84.8422 23.83 84.1002 23.004 82.9522 23.004ZM89.3276 25.706V29.5H87.9136V22.08H89.2296V23.648C89.7476 22.626 90.8676 21.982 92.0856 21.982V23.452C90.4896 23.368 89.3276 24.068 89.3276 25.706ZM97.6986 29.71C94.8986 29.71 92.7286 27.428 92.7286 24.46C92.7286 21.506 94.8986 19.238 97.6986 19.238C100.219 19.238 102.235 20.918 102.613 23.396H100.975C100.695 21.772 99.3786 20.624 97.7126 20.624C95.7246 20.624 94.3246 22.234 94.3246 24.46C94.3246 26.714 95.7246 28.324 97.7126 28.324C99.3786 28.324 100.695 27.162 100.975 25.538H102.613C102.235 28.03 100.219 29.71 97.6986 29.71ZM108.595 29.5V28.352C108.133 29.178 107.307 29.64 106.215 29.64C104.675 29.64 103.667 28.758 103.667 27.4C103.667 25.944 104.829 25.188 107.041 25.188C107.475 25.188 107.825 25.202 108.427 25.272V24.726C108.427 23.662 107.853 23.06 106.873 23.06C105.837 23.06 105.207 23.676 105.165 24.712H103.877C103.947 23.046 105.137 21.94 106.873 21.94C108.707 21.94 109.771 22.976 109.771 24.74V29.5H108.595ZM105.011 27.358C105.011 28.128 105.585 28.632 106.495 28.632C107.685 28.632 108.427 27.89 108.427 26.756V26.154C107.881 26.084 107.489 26.07 107.125 26.07C105.711 26.07 105.011 26.49 105.011 27.358ZM113.076 25.706V29.5H111.662V22.08H112.978V23.648C113.496 22.626 114.616 21.982 115.834 21.982V23.452C114.238 23.368 113.076 24.068 113.076 25.706ZM116.393 25.79C116.393 23.536 117.681 21.94 119.683 21.94C120.677 21.94 121.545 22.444 122.063 23.354V19.448H123.477V29.5H122.161V28.17C121.629 29.108 120.733 29.64 119.683 29.64C117.681 29.64 116.393 28.016 116.393 25.79ZM117.863 25.79C117.863 27.442 118.731 28.38 119.963 28.38C121.167 28.38 122.063 27.4 122.063 25.762C122.063 24.096 121.139 23.186 119.963 23.186C118.731 23.186 117.863 24.11 117.863 25.79Z" fill="white"/>
</svg>
